inDegrees=no
num_controls=7
num_derivatives=13
num_iterations=161
num_multipliers=7
num_parameters=0
num_slacks=7
num_states=26
objective=6.008425
objective_accelerations=1.014633
objective_balance=0.077122
objective_effort=0.674819
objective_height=4.161509
objective_ligament=0.080343
solver_duration=1664.096083
status=Solve_Succeeded
success=true
DataType=double
version=3
OpenSimVersion=4.4-2022-07-23-0e9fedc
endheader
time	/jointset/ground_pelvis/pelvis_tilt/value	/jointset/ground_pelvis/pelvis_tx/value	/jointset/ground_pelvis/pelvis_ty/value	/jointset/hip_l/hip_flexion_l/value	/jointset/hip_l/hip_adduction_l/value	/jointset/hip_l/hip_rotation_l/value	/jointset/back/lumbar_extension/value	/jointset/patellofemoral_l/patellar_flexion_l/value	/jointset/knee_l/knee_flexion_l/value	/jointset/knee_l/knee_adduction_l/value	/jointset/knee_l/knee_rotation_l/value	/jointset/ankle_l/ankle_angle_l/value	/jointset/subtalar_l/subtalar_angle_l/value	/jointset/ground_pelvis/pelvis_tilt/speed	/jointset/ground_pelvis/pelvis_tx/speed	/jointset/ground_pelvis/pelvis_ty/speed	/jointset/hip_l/hip_flexion_l/speed	/jointset/hip_l/hip_adduction_l/speed	/jointset/hip_l/hip_rotation_l/speed	/jointset/back/lumbar_extension/speed	/jointset/patellofemoral_l/patellar_flexion_l/speed	/jointset/knee_l/knee_flexion_l/speed	/jointset/knee_l/knee_adduction_l/speed	/jointset/knee_l/knee_rotation_l/speed	/jointset/ankle_l/ankle_angle_l/speed	/jointset/subtalar_l/subtalar_angle_l/speed	/forceset/tau_hip_flexion_l	/forceset/tau_hip_adduction_l	/forceset/tau_hip_rotation_l	/forceset/tau_knee_flexion_l	/forceset/tau_ankle_angle_l	/forceset/tau_subtalar_angle_l	/forceset/tau_lumbar_extension	lambda_cid13_p0	lambda_cid13_p1	lambda_cid13_p2	lambda_cid13_p3	lambda_cid13_p4	lambda_cid13_p5	lambda_cid14_p0	/jointset/ground_pelvis/pelvis_tilt/accel	/jointset/ground_pelvis/pelvis_tx/accel	/jointset/ground_pelvis/pelvis_ty/accel	/jointset/hip_l/hip_flexion_l/accel	/jointset/hip_l/hip_adduction_l/accel	/jointset/hip_l/hip_rotation_l/accel	/jointset/back/lumbar_extension/accel	/jointset/patellofemoral_l/patellar_flexion_l/accel	/jointset/knee_l/knee_flexion_l/accel	/jointset/knee_l/knee_adduction_l/accel	/jointset/knee_l/knee_rotation_l/accel	/jointset/ankle_l/ankle_angle_l/accel	/jointset/subtalar_l/subtalar_angle_l/accel	gamma_cid13_p0	gamma_cid13_p1	gamma_cid13_p2	gamma_cid13_p3	gamma_cid13_p4	gamma_cid13_p5	gamma_cid14_p0
0	-0.0362245917795404	0.05641696453012044	0.920352170500134	0.3085811930696054	-0.2954715072750463	-0.2978610868718858	-0.3879500408040475	0.2499276582270797	0.249927658227084	-0.1745329034372758	-0.1708581421504532	-0.0008036543073733089	0.0005646487253954243	0	0	0	0	0	0	0	0	0	0	0	0	0	0.1102536228488637	-0.05359921740545603	-0.02038004302844297	-0.2506331023899081	0.1753600760779382	-0.02240708394081568	-0.04234099144609656	14.33760449443635	4.702775747823174	1.672343164059057	26.91722406309314	-584.6731023145027	-68.25872294594761	-23.07309987773526	-2.348302955484139	-3.137628176701329	-1.492009056672206	15.75143450109082	-0.7201006005035699	4.762884285670264	-9.16510023641907	15.13346970776575	15.13346970776687	3.345347080929784	-0.4052966978118754	2.873297170491917	0.1882938157424409	3.788730086887209e-08	4.31012072260929e-07	7.750715153316914e-08	-2.877154739593167e-08	3.651705406987683e-07	3.028684205503935e-08	3.588181318208242e-08
0.01	-0.036335456012784	0.05626266111283795	0.920279197916143	0.309349870140344	-0.2955078610659489	-0.2976215541896585	-0.388406546424979	0.2506704476403636	0.2506704476403858	-0.174371302116362	-0.1708729449973247	-0.0006624012099356702	0.0005728502406028024	-0.02204990602929171	-0.0306245438055468	-0.01454132359815594	0.1528787782346508	-0.007209243325690325	0.04765421045368087	-0.09053271892043116	0.1478430019343036	0.1478430019343376	0.03218585273431553	-0.002932442400090183	0.0282289816190201	0.001699217122336528	0.1018913233456534	-0.05958741530622084	-0.01944392408011055	-0.2448768247727492	0.1682924290089861	-0.01200672253210929	-0.03415784968091737	12.30514540725444	0.5850278609065971	2.279412525391278	25.61278538319758	-588.7261964337652	-76.10571679738619	-23.08190624786915	-2.114910245351413	-2.989452288790336	-1.427141997280429	14.92759391072042	-0.7121987429889769	4.728851719606628	-8.882096930214725	14.50247615113908	14.50247615114342	3.135127361005025	-0.2330013189345553	2.794467535196978	0.1694946248892105	-1.804998595061329e-08	4.291731713914843e-07	2.427944261084617e-07	3.989940185083721e-08	9.201821664083552e-08	-9.438435661025773e-08	2.502748911934456e-08
0.02	-0.03666313447006824	0.05580919529623891	0.9200624224989914	0.311621633878645	-0.2956144797989825	-0.296913046944018	-0.3897453270771897	0.2528702192159883	0.2528702192159891	-0.17389185766983	-0.1709162289297302	-0.0002395045207906676	0.0005997957199154255	-0.04336284480656339	-0.05983247986331114	-0.02876056663214365	0.300617333512053	-0.01405298842687651	0.09379491268295229	-0.1764550062552666	0.291396432463659	0.2913964324637136	0.06356862512153393	-0.005696217113256878	0.05632871834163373	0.003748792821069626	0.09352902384247444	-0.06557561320696749	-0.01850780513198338	-0.2391205471555734	0.1612247819400284	-0.001606361123381976	-0.02597470791571506	10.39427361862472	-3.549768501233438	2.884353549988603	24.14945808272968	-590.9454434447561	-83.80068713223403	-23.10764989117298	-2.200909505080286	-2.854306627144707	-1.427592943838565	14.7233899096411	-0.6470009556027813	4.460182640788397	-8.24301391930001	14.27555542677608	14.27555542677452	3.184731011510279	-0.3715631604271622	2.847448191210757	0.2583655310217631	-7.398727277009867e-08	4.273342705220396e-07	4.080817006837542e-07	1.085703510976061e-07	-1.811341074170973e-07	-2.190555552755548e-07	1.417316505660669e-08
0.03	-0.03720083234231232	0.05507040471476204	0.9197043879409287	0.3153465659800356	-0.2957875298277883	-0.2957518835459023	-0.3919210681555603	0.2564845635369579	0.2564845635369458	-0.1731026325886227	-0.1709871747576247	0.0004631880774665533	0.0006489889709463639	-0.06405936939869264	-0.08772224078708601	-0.04285044844697397	0.4435879410860665	-0.02049639182597792	0.1381891471642571	-0.2580640840105125	0.4307780206536534	0.4307780206535815	0.09408707120841585	-0.008437775812864404	0.08412974022813489	0.006127053225952825	0.08574153889341578	-0.05947444065076961	-0.01765941582156547	-0.2339563400921672	0.1580140087799105	-0.003356125811050019	-0.01893282031978586	9.32153903988333	-2.65787699122627	2.80596714718873	23.26927752724854	-591.7599441801806	-80.78729373556249	-23.14887159535535	-1.986427253695541	-2.725779486316505	-1.400338650758254	13.96671161065398	-0.634048138174979	4.391709741558391	-8.025485892648774	13.66529606313735	13.66529606311981	2.957121048173601	-0.217120631922961	2.73443184622854	0.2330204554002305	-1.127500711614697e-07	3.380921755386968e-07	5.295282184707706e-07	1.426916166683372e-07	-3.560804789304037e-07	-3.253936781846405e-07	-4.547667337349658e-09
0.04	-0.03794197612396867	0.05405882279178355	0.9192053239946265	0.320477767243038	-0.2960232215118048	-0.2941542446250217	-0.3948940262492879	0.2614718908494087	0.2614718908494167	-0.172013879118375	-0.1710838698539878	0.001441491426360351	0.000723057658061765	-0.08405202668746455	-0.1143907481636331	-0.05696644428002646	0.5818711658350023	-0.02658131946952652	0.1810900172358353	-0.3358984093262535	0.5659930307646933	0.5659930307645153	0.1234743029311511	-0.01084607080028098	0.1114508684689857	0.008723880037979663	0.07795405394435728	-0.05337326809457109	-0.01681102651093874	-0.2287921330288031	0.1548032356197822	-0.005105890498724068	-0.0118909327238502	8.35754210018009	-1.778590786167076	2.72223996706412	22.23470118167061	-590.9472079422391	-77.62797405181172	-23.20361401061825	-2.060136044408968	-2.610055917698989	-1.432815747483	13.78591334462555	-0.5753058044922492	4.161509758843077	-7.488063431399106	13.44223981098517	13.44223981098768	2.95848813868088	-0.3049104179889545	2.751469462080829	0.3020788124505113	-1.511587563893744e-07	2.470479528416653e-07	6.500708031281318e-07	1.761005176271913e-07	-5.2900198544279e-07	-4.313537995317425e-07	-2.343069577937238e-08
0.05	-0.03888013150951654	0.05278684639125596	0.9185644818891916	0.3269692934949335	-0.2963176891648222	-0.2921364984415128	-0.3986255422798503	0.2677911703873487	0.2677911703873511	-0.170636504221024	-0.1712041545043997	0.002690870721812115	0.0008245840207978676	-0.1034529112072984	-0.1397809087222213	-0.07124128327012293	0.7156307137518432	-0.03223644151527282	0.2221803333789504	-0.4097628308301111	0.6971654153822159	0.6971654153820559	0.1518005821127664	-0.01315236557584363	0.1383548667781433	0.01163805019743917	0.06981739052635748	-0.05189630036296349	-0.01588937550660058	-0.2243157942110182	0.1509599899860666	-0.002584999312908857	-0.004719497266786581	7.372877000115235	-2.701577773421866	2.870042427469847	20.96516692944207	-589.8850538782489	-78.19792347973633	-23.26939699786555	-1.861144045666018	-2.46991715148817	-1.43082114199233	13.05045700020819	-0.5493855179405654	4.040872050243337	-7.239336616791804	12.85012340947267	12.85012340947399	2.739793862165995	-0.1846105884285357	2.649352457305175	0.2944709351400939	-1.732347859483866e-07	9.558837993853746e-08	6.836729638402227e-07	1.860220889014833e-07	-6.212822672264443e-07	-4.843048990366687e-07	-4.322609667419608e-08
0.06	-0.04000851161824964	0.05126768417983321	0.9177796907604115	0.3347743115229983	-0.2966664620609593	-0.289716233194934	-0.4030764435468343	0.2754012508959428	0.2754012508959238	-0.1689818473210054	-0.1713457264187689	0.00420718748874941	0.0009569290486177665	-0.1220969713229451	-0.1638279103426652	-0.08575624894905451	0.8445695210684975	-0.03744236809401188	0.2615938298499736	-0.4797754566104963	0.8241532248932103	0.8241532248930583	0.1789307034649439	-0.01510352359494804	0.1648383627661786	0.01488761305475422	0.06168072710840512	-0.05041933263135259	-0.01496772450235295	-0.2198394553932133	0.1471167443523495	-6.410812708901619e-05	0.00245193819031565	6.480801329523072	-3.637450813111367	3.016100336221207	19.55177889869509	-587.4447088572565	-78.64339007317993	-23.34335798227472	-1.908771163571689	-2.341424130069949	-1.480841085250025	12.82176522458826	-0.4854667110908416	3.82614582442472	-6.717704286704732	12.60532478967952	12.60532478968004	2.719256572793256	-0.233883066697287	2.667368997856525	0.369157352021648	-1.946231247423928e-07	-5.841499718379442e-08	7.136144751230389e-07	1.949547199785306e-07	-7.101671290215204e-07	-5.350240397271875e-07	-6.305991325124298e-08
